<svg width="202" height="168" viewBox="0 0 202 168" fill="none" xmlns="http://www.w3.org/2000/svg">
<path d="M170.58 73.2476C174.983 72.7312 191.628 69.0642 199.402 67.5965C187.065 71.7044 162.162 80.6935 155.883 85.4943C155.227 85.9956 154.752 86.6921 154.351 87.4135C135.925 120.562 120.621 129.395 85.6569 129.395C83.0529 129.232 64.7 136.418 53.8319 140.849C52.1666 141.527 50.4406 142.027 48.7655 142.681C42.2511 145.225 29.5621 152.61 23.2476 156.477C18.4928 159.17 11.0005 165.113 7.99367 168H0C11.2645 160.778 54.4156 137.59 74.5833 126.899C65.4896 130.129 55.2957 129.37 51.3353 128.587C67.4694 124.36 76.6368 115.866 79.2034 112.147C66.7654 105.747 59.0113 85.9938 56.6891 76.9177C59.564 85.1378 69.8164 88.9052 74.5833 89.7616C55.9265 81.3066 51.3109 58.0064 51.3353 47.4128C53.9756 62.2092 63.5826 68.2079 68.0563 69.3577C49.0472 51.1562 48.9887 15.5352 51.3353 0C69.5818 60.0072 99.9576 93.0641 112.865 102.092C120.272 107.45 125.699 105.468 133.472 102.092C139.412 99.8166 142.627 94.6792 147.846 85.2111C152.348 77.0451 154.016 74.8884 158.675 74.0134C159.08 73.9375 159.495 73.9086 159.907 73.9068C163.946 73.8895 166.389 73.7399 170.58 73.2476Z" fill="white"/>
<path d="M179.301 127.556C209.977 128.376 203.733 93.5664 192.685 69.9842C192.03 68.5858 189.945 68.8899 189.576 70.3902C186.304 83.6713 178.346 99.0399 173.664 106.912C173.1 107.861 171.91 108.211 170.915 107.739C170.329 107.462 169.866 106.988 169.511 106.446C166.793 102.293 159.248 97.5245 155.292 105.318C150.464 114.828 159.07 117.944 163.976 118.314C160.37 119.569 159.855 126.14 163.976 126.14C169.127 126.14 170.4 123.774 174.291 125.88C175.858 126.728 177.521 127.508 179.301 127.556Z" fill="white"/>
<path d="M74.5425 0C83.1656 73.7721 113.016 89.5964 117.364 100.879C98.5553 89.743 78.9775 58.3631 71.5346 45.211C69.8806 32.0585 72.8225 10.0121 74.5425 0Z" fill="#EB5737"/>
</svg>
